<mxfile host="app.diagrams.net" modified="2023-12-08T23:49:04.359Z" agent="Mozilla/5.0 (Windows NT 10.0; Win64; x64) AppleWebKit/537.36 (KHTML, like Gecko) Chrome/119.0.0.0 Safari/537.36" etag="wUw0IcaeBjMGdwTtAmNz" version="22.1.7" type="github">
  <diagram name="Page-1" id="0LIjOh7-Sheb63Tu5jK3">
    <mxGraphModel dx="1434" dy="758" grid="1" gridSize="10" guides="1" tooltips="1" connect="1" arrows="1" fold="1" page="1" pageScale="1" pageWidth="850" pageHeight="1100" math="0" shadow="0">
      <root>
        <mxCell id="0" />
        <mxCell id="1" parent="0" />
        <mxCell id="7CHnxW_o8FtIitzruG6D-2" value="" style="image;sketch=0;aspect=fixed;html=1;points=[];align=center;fontSize=12;image=img/lib/mscae/Two_User_Icon.svg;" vertex="1" parent="1">
          <mxGeometry x="50" y="252.5" width="50" height="50" as="geometry" />
        </mxCell>
        <mxCell id="7CHnxW_o8FtIitzruG6D-3" value="" style="endArrow=classic;html=1;rounded=0;" edge="1" parent="1" source="7CHnxW_o8FtIitzruG6D-2" target="7CHnxW_o8FtIitzruG6D-5">
          <mxGeometry width="50" height="50" relative="1" as="geometry">
            <mxPoint x="400" y="620" as="sourcePoint" />
            <mxPoint x="274" y="583.04" as="targetPoint" />
          </mxGeometry>
        </mxCell>
        <mxCell id="7CHnxW_o8FtIitzruG6D-4" value="Prompt" style="edgeLabel;html=1;align=center;verticalAlign=middle;resizable=0;points=[];fontSize=14;" vertex="1" connectable="0" parent="7CHnxW_o8FtIitzruG6D-3">
          <mxGeometry x="-0.0704" y="-1" relative="1" as="geometry">
            <mxPoint as="offset" />
          </mxGeometry>
        </mxCell>
        <mxCell id="7CHnxW_o8FtIitzruG6D-5" value="Mobile App" style="shape=image;verticalLabelPosition=bottom;labelBackgroundColor=default;verticalAlign=top;aspect=fixed;imageAspect=0;image=data:image/png,iVBORw0KGgoAAAANSUhEUgAAAMAAAAC7CAYAAAAzOZEFAAAAAXNSR0IArs4c6QAAAARnQU1BAACxjwv8YQUAAAAJcEhZcwAADsMAAA7DAcdvqGQAABJzSURBVHhe7Z0HsCRVFYbXiKCAkpGsgIQiRxHXgAmksJBUhBIQi4JSDICIATGgiIUWokhOolAkQUQKlGBAJAuICgiSBFEJIiqgGP5vZ3qreZyZDtP3Tt/u81V9NQO7b9/refd0uPecc583y4nFAnJjuabcSC4p55OvkI8NvVNeM/Q2+R/pOMnyQrmOPFo+Kf9X0mfkg/IAubh0nORYXl4i/yutQV7WR+Uhcl7pOK3nJfJgWeWMX8a75Buk47SWheRl0hrATcit0b7yBdJxWgUPtTy4WgO3aY+Rz5eO0woWljdLa7CG8iDpOFOH25GzpTVIQ8rD9U7ScabKXtIaoDF8RC4tHWcqLCEfltbgjOVF0hc0nalwkrQGZUz/JV8rHScqzPo8Ja1BGdvzpeNEZR9pDcZp+SrpVMTnkuuzw/C1LWwzfHWc4Cwoufe2zsTTkhVofxiuiF8B6rG+fNHgbWtYTpJ96lTAA6Ae6w1f2wTPAPMM3jpl8QCox7LD1zbB7c9Sg7dOWTwA6rHY8LVtLDN8dUriAVAP8nCcDuABUI/Hh69t4y/DV6ckHgD1uH342jbuG746JfEAqMfdw9c28Uf5z8FbpyweAPW4cvjaJu6VLM45FfAAqAf32lSAtQnSolkRdirgAVAfBlybuHD46jhRWF3+W87MyZmGN0jHic6Z0hqQMaV94tbScaLDVWDaRTFXy7Yl5jk9gfybw6U1MGP4tFxXOs7UeLH8hbQGaGg/Jx1n6pAd+oC0BmkIyUU6XXqLRKc1bCifkNaAbdrzpOf+O61jJRm6P+jJ0iu/nNbCji8/kExPWgO4rn+XH5a+eOm0Hs7Qu8jfSWswV/ViubJ0nKRgs4w95S3SGtjjZH2BhlezpXd7cJKGfcKsQT5OgsZneQLj95NxqFNCSRA4gfEAaC8eABHwAGgvft8fAQ8Ap9d4ADi9xgOgvfgzQAQ8ANqLPwNEIIUPmVVVNqCef2iKsIpL9VgV7pA7ytS60HHlIm3jUfk3SUpIa2ljADDgafL6ermlfKOcT5L9SO69024IAGqln5T/kD+W5Eb9TD4oWx0Q0+SlkrSB6yRnPT5ItzsSFNfKPaSncud4udxXTnu7UTeedLHbW3LS6y08gL9Z/kFaH5Lbfe+SbPHauwd+siSPkn6r43JrdIRkTPQCHnCvl9aH4fbXK+TCstOsJu+U1gfguvRbXUJGI+a916KSJk6TbOhM+2+m1pz2woMt09Z1oQ7iLTLKZh+xAoCZHlqK00mtLNwb3iQvkD+Vv5GPSaf9cCvD1X4z+S65iqzSvY61gy0kawnJw2wPPWysS54lPe6/LVeVXhGVPvwO15Dflc9I63dueYLsxOzQe2TZDgncA24gne7BYH6DvFVav/uZciLcTiYNLUIektYB5uXMQL8bXyHsPvPKc2SZkyJjhzGULEdK68DyshZAj8veLYb0GPK9vizLrAN9SSbJCpJZG+ug8iZ7gM7EnCKtMZH3zzLJqwBndeuA8l4qPcOzv3A7VKaz9kEyKVjWZsrSOpjMv8olpdNvqJVgbccaI5m/l0mdKN8ui+7vDpWOA8dJa4xkMkmytkyGo6V1IJkscCwmHQcYC4wJa6xkMqGSDKzaWgeReaJ0nDxFGw7+WiYBdbvWAeSlDsBx8mwjrbGSN4macDZts374TJKcFpSOk2dFyeqvNWYyG98QMERbFPbLGgcdA+gW4Dh57pMEwDiKxlZlQgTAIsPXUdwjiWbHycPgv3fwdiSNF8yECICiQmdPaXZGQX34OFg4a5QQAeA4yeAB4PQaDwCn15RJQaaih5yd9eQysqjeM2tpOAo2eX734O3UIPCzY89SNvoIn0F2EuQz4LOYJpfItw3emlAe+/PB25GQgXy3/KX8kxzbinFcADCbs5fcWVLT2RTTCADqUTeRVCSxYR0F+qTYUnfMugSVaLTtoxaV9NsuQ9eFTSWfx5qSNAROco9IuvPdKC+X18jYfTyLAqAqZCSQck15ZenJFwYL/Rvp7pstQDQptaGxyNou3i/LFF9w9jhXcrXrUoEOx8IxUZv9tLSOPS+fFZ/ZPjJmLj4BYP08k8pY3lUW1piTxnyWLFvDW8cYAcAv/J2SbsTWz1AkV4YzZBd6V7LqfrzkmKxjLZJAoE1JjBNCqABAxvSpcmRaNdFBrab1xU0aOgA4QFKtre9d1dtllVYubYNuDE3tVn+YDD1pEjIAMjmxPedKwIEdI60vaNqQAUBR/WnS+r515b648RyUCPCsw329dUx15LboWEk9byhiBADSi/RZVzQ2oajSs2USQwbAIdL6npPKrRQzYKnwatnk4M8kCELm5ccKANIueCaaA2f/q6T1F0MYKgA2l9b3a8qfyMKHqBbAz8huLNYxNOW2MgSxAgB/KOfc0hEJsc7+GCIASJJi0wXr+zUp08Jth40nrJ+9SUlonKT/5yhiBgAVaCsSAdvLFM5s42DaNkZX4YNlm5t3LSAPHLwNynJy/8HbZGHGczcCgB06UuZl8qODt8EhyKa9ij0OGtE2njM/Alpepr6pxWwCIKlqewNu4WJurMDVpq3sPnyNAW3u1xq8TZa1CYBU997N2FDGXLVlbr2Nnxmr3jGv5nzmWw/eJsv8c56CE4cAiAlXmzY29OLWp0oP/iZIcX3kWXQhACbZcaYOTBgsPXjbKng+iT2ZsfzwNVm6EABkdsamjQ9/Cw1fY5J8rlQXAsD3DBtAlqdTkS4EQJTN1GZAoUXbIPUhNiw+Jk0XAoDqn5hQM9DGohk6KpDyHBN2ek+aLgTAZcPXWHDWa+OZj546TwzeRuNHw9dk6UIAsMECuUyxIOBifr+yZAUfseBKSEJZ0nQhANh5/rrB2yh8dfjaRih5jBWcFKdTLZY0XQgAMvs+JWMUcFM0T4VVW6ETAsXsoSHI2NuNzz5puhAAQK7+xYO3waCI4iNy2q1DxsFJYE9Z1GR2Urj352SQPF0JAH7x75VU/4fik/KmwdtWQysQKuNCwWdMzUGbTwSVyBcJxDBkSSTdC2i/bn3fSaRTRsha2KahZoH2LtaxTCKLjrNlKGIWxGSa/zOkIQMA2H2maIfKKp4tU9zKlTQFAtc6pjpy5g9VCpnhAdAQdET4rbS+f1l50KO9SuwMyybhZ88mCKxjLCtNAeYWkQfEA6BBqBRjypL9iK2fY5xXSnqcdoXNJNOW1rGOk7P+F2Ws5D8PgADQGW0/yS6DbM1k/Uyc7cnvYR79TTL1GmkLJjxof0PzM46VY7Y+i8flr+SnZexM2+gBQFUPb2Iyre7QDABy5umZQ/FIVtXFLuTk0ZBK0JfMUq6OfAYUtyOQRkG3Bz6Ph2TscQEEQJPNcUvxrIiIYOwrgJMO0a8AXVkHcJxaeAA4vcYDwOk1HgBOr/EAcHqNB4DTazwAnF7jAeD0Gg8Ap9d4ADi9xgPA6TUEAFuBOuOhIGZjSRLfFrKN3aFpj85O+PyMtEmPucF1qswZ+zH2Bs6bWjLcRpIOaNTAZsdAT5zDZRu2SyJ1exeZ3yONn5XtXamTjrl3wqTEToZj7M/Z+M36w1CmFABsjTquoOYKuZKcFovI8+W4ii+2MkqF2AHAiWPWK+WoQpEQphQA35DWMeSlCP+DMmbpJBVa75M0BrZ+przXy1Se9WIGAGWec28TPy+tvxTClAKA0kjrGGbKLQfd6bgHDznY6ExBVRcNsPK3ZOOkwCWVuuaYAUCt9FyIBFoMWn+xaVMKgM9I6xjGSYOuTWWTcJ9PpdTV0vqe46RpmF8Bnu0t8jl1zsxyUBJofUGTphQA3GPXPTFw9dhJ8m/UgUFL+Sbd6Op2uKBDHL2SUiFGADDGmdgw2UqGDoKUAgComaUDddlbjplSa0tH6Q9JNpVjk715JbclnNm5rWGalTrdxSVXj4PktfIpaf2bZXxAUuCfEqEDgAmNt8qxcCXgAcH6B5owtQAALpdNPSexlRH35bfKGyT385zhmcbkz6yvqep3ZIrrACEDgKYHa8pScDZiBqROT50iUwyADB5yb5PWcbVBOldvL1MlRADQ2+gIWWtDP3Ye3E1+X7ItEAFRZNFlO+UAAK4G+0tubazjm4b8LHSxm0+mTFEAPCmtMZeXtphcTb8nWQOhL1QjsKLIP8aS+ziZXrJ++MzUAyCDRbJjJftyWccZQ9YgOLuxltMFigLgQGmNubwLyKnCw571w2d2JQAyWAk+TtJRzTreENLI62uyKwM/oygAPiAbJZX54TbDfTebUrBjPbdG/HeI3RrJP7pKsny/suREw2SFMwEeAM3BPr1fkavI9SWXa3ZR4TalLswWXSS5l+XffZ1khodgcBogRKYgl6mvD96aMCee0uLMpDDfz8LLqnJ1yboCi2M8sDL/T5NaktnI6yGIuILQyJccHqbuuPT3BY57tcFbk/fLbw7ethfOVjPv3fImv7lyg7AQllK6ckj4HIqSMhvPbA1xC8QeVeNgjSHrzNx3sjRmZ9as5WXRPgRFY6syIQKA3JlxsLaw4uCt48xlDVmUtVo0tioTIgBYjBh3m0Puy86Dt44zl82Hr6NgTDG2kuAkOfP+LS8rl0WXO6c/MBaKVtZPkI0TahqUnHh+6FHwHLDH4K3jzPq4ZEyMgkxcdutMhsUkc9UzozgvU3zeucBhWrhoFZ09zRrL6YnFadI6mLzfkr4Y11+YBmahzxobeU+UycHCT1GiGH9OcbfTT9iJ0hoXeamRoDIuOVjYyJ4FxknZ3o7S6Q+MDRa1ymzgfaZMFlKGyeG2Diwvzwt7S78d6j7c9lDyOWqf4ryMHcZQ0nxMlqmn5e+Q6LWUdLrJCvJCaf3+Z8rVgX5LycPqHold1kFaUnnGgVPc4Hky6cPvkNX/T8gqDRdo50KyYCdgqosiDutAR0li1MmSFcK6rUWc6UFuD892Z8iqnQdJeWAqPTgxz7CkBFPxU3U+N/tQuB9kOZwPcyZcLq+RR8n7+B9TgIIYnmPWkrQ96SuUJFKww9m7zjMdawI0AaMtTOegbXfRAtkkklNPW5fY0MsnZklkV6WgnRNIp+FKUPV2qIq0LYl1BuYKuqv0wT+5XN3Xkb2ADmiUC9bttlbkhjI0PNx/VoY6hr7I7StjgTHRKxhA+8kQ/XWKUmsnhZRuOkH44J9MnucocyyqA+g0LHQw21NmVbCsG8hQ0NuTjTGs7+uWk9V/1nySTHEIAffS9LhhFud+aX1oVaT4PAT8wihat76nO16uljTsPUYyY+aMgG4JdI3gg+KBllkjzhhlbzeYLmUOumk2kfwCre/pPlcSHfndUcdLJwc29qjVnzMkKay0UjPA1WEJmbVmHJcey33la+RDc/6rGVjQ4XuWnV1iOvYLkj6pfYLbWJ7p6IVEf04WtKx1G2cCeGawzjiZDD6CpAlYyDlAlkncyqTVud/bOsFgocQaeJm0C2xiHYCVzOOl9T1GyT5hnrbhBIUe/dbgy7xHTppWzW1XmVqGvDQC6HMKhBOJbaU1ADNvlpOwrOTBzfq3LXnYY9Nsr2VwokAnZmsgZl4q68L6QZWZHtJ7SYXwwZ8oKf7iiu6xHx6+VmUHSePesj33adK0pTxVMkXrJEiKAcBK7DjIKKwCaQ10tD5dlu1ZStty1gVYEXYSJsUAKEqaqtI+j5keWrkfKct+Fsz0kNbNdKfjROdyad2PZx4sy8DZ/jxp/RujPEv6TI8zVdhEwRqcmbvLIijRvFpaX2/JTM9h0h92nanC/fod0hqkme+Q42AhjZ1YrK+1JJ9lL5lC2ojTcUimKsoWXVeOgm3yeUi2vs6SSq+igHKcaJDjQ6NUa7BmkjQ3E5oxUXhRtIl33rsl7R0dpzXQKqOoxcbMlFvu27l/r1K9xfMBvWwcp1WQCTqu4S6puPlZGlp00JfG+rujPFcm14rb6Qfk+VuDNpNM0Kyb2NKySkc6im4OlTxoO04roeePNXgzb5cMYDbh4x7e+juWFHLwjOAzPU6rYUbGGsCZN0q6ilXpNEHuEDk9jtN62F3SGsSZTHFyK2P9mSW1A9xWOT0ltZXNRYevo2CatGyPGTqRzZbcNjk9JbUAaKrW9xzJivC0Guk6LSG1AGhiV8mjJV0eKGZxnKRgvyjrXr6MrB/sIz2hzUkWmqhag7tIZoW2ko6TNDywWgN8nLRip4DFcZKHjmPWIB/lTTL5XQYdB5jerLLJGgXuTc0aOc7UYQaozJ7DtDE8VpIC7TidYR5Z5gpAL0+f6XE6Ce0HrUGPzPTsJD2hzeksNMWi5fbMwc9MT+d3F3SaJ7X7ZArUT5Hk/FP5RSv0C+R2kvRnx6nArFn/B8tj0wn65hhdAAAAAElFTkSuQmCC;" vertex="1" parent="1">
          <mxGeometry x="340" y="228.25" width="101.13" height="98.5" as="geometry" />
        </mxCell>
        <mxCell id="7CHnxW_o8FtIitzruG6D-6" value="" style="shape=image;verticalLabelPosition=bottom;labelBackgroundColor=default;verticalAlign=top;aspect=fixed;imageAspect=0;image=data:image/png,iVBORw0KGgoAAAANSUhEUgAAAOEAAADhCAMAAAAJbSJIAAAAe1BMVEX///8AAAAuLi5gYGA4ODhHR0coKCj19fXZ2dn6+vrv7+/n5+e4uLhbW1usrKyOjo5ubm7h4eGkpKRkZGSNjY3ExMSHh4eVlZXLy8upqal9fX11dXWcnJwTExPAwMDd3d0aGhpTU1NAQEAXFxciIiI9PT0yMjJVVVV5eXlaX/TkAAAKrUlEQVR4nO2da1/zLAyHracdne6gm4ep0zn9/p/w2RESkgDtoO39/HK9dLjyb2kSQmAXF4qiKIqiKIqiKIqiKIqiKIqiKIqiKIqiKIqi1Mfi+enms9izXj2NFk33Jy3dt9uCcD0ZNN2vRHTeqLojl6OmO5eAwYOob89Tv+kenkcnoG+vselOnoM8PhHDpvtZlQFjXnjuek33tRKjWH07uk33tgKvZQQWxb9nVVeMivXD/WTLbLpkPpw13eOSfLkCNhM0EB/nROK/ZVNdgXMmfOn+EYn999Hb/cN0+jefDNv9Zt7hrk+EZr0nz4tZFMunYVtt7Avq6Iunm/2VV2NR3LTSV76jPgZG2zAgcXuHWhfXddAzKNec57VlGuHAmwZbf1yHFbbMlcBh9xBqHBOZ71m2yLSCbl2F2kZG5u16jMCTXweaPnKhjcxNO1xHD3Sp4205uBGUrG9veenLVhgcMO4efe16L4yE6/n7KfbpLUbMK9oGibY33peQmVltRmQULty4rmg+dwWcved+Lz6JvjvBVroBun/k18DUdEWeKfSdqHX3/Dy+AMeu6wydjqcznEXcbCba9seegzV62Mm7HUt/cgk7IgUzTBganhei1/E5bb9jWbgjjzek3cvC5S7GPj7D/2jCoD7SjnPNmBDtM3L5Aj76n5Rdj4Jz3dwgvafN4tNPcEZW95SRnafTrr/TRi9lLgND2GR9jwEbOoNr/cc/pMlNSe9tHVHxlqz7YZgnw9zlHolNimX59cNGHiJNCXJd6NLPqzyFhf332tLHYlp7A1v1ycevUjjQX/iiMjtOv9Np8EKMv1mJQdkZ14b+jIXv24erN9Kn6FbVM+N3jOjl+4VxG2he4SRi3oWvM+HqnzjTtWOmlgm/MwHaBTG8QhQO3EtfB++XlEEe2yYplQhg83GILYMKp9Jr5oSrkqXdmBbyWE4G6tHxtQgovJTeni5dSv1lo08bn+aPv69Ab25PT8avUAq2+nxGkZtyWFsTzFOeyyPoypf5q0/hUvoqJlw9wng985n4dakA/QA5Q5/CS/6LpKBozy0Z1vZxp9VDAGEwvJmlFY7ROuOIpm+mzutoX8TMpgb0AcbPJRV2UEy08yMT+hyxe7GP3JurPBsQjiLzUU4hknN1eFg9JhCEl+iyf02PvfoK/b2MQpTSX1v/NyYVAMXmw3xql+KyKgTuGb8m8QoHKygBG03G+JhQvSf8T2JsoOnM0mMV4pQ+neozk7LjdKsehSDEd4KwSIUool1xU30mZ7Xcm5Z6Rqm1EH/OJ1EKFyjvMRcuwuQdd2mPeizNylzFdcgRCklK3/V4BiZ3/AJiqZzewl7R/SSsEKT9DVETqiN29GZchVrIXQsplCpLgpNihhzSjozkjvkV4lcLmZvrD/erjjDrcAdyrkHZsUM+8ipEHmJnYNCkQkxOCVWqpbLJJTHekE5gIrIYex4OcvpT+EfJqrLr4VndoRk3K/JRnEKwHIoG7lIyjzgAOpBzAcpchOa7ohRiR4aMj5jofywcsi4Fm6vQvHWEQpqbQD5BfL2ceRUdPwkxV6HJoKBCdjkU+wQpxeQEcm44lZLqCsXlUOQT5FZIYsaorfIo9Zk/5BOkhe8eWorNF9SYS9Boq1Ku7Qgq9JKKF+BIva3Y/zCmK3Qlu0KuzeAkhYVBCM2S5EDPxmTWqcVOqFAqIoJPMZdP9KQsUyqUFjlWtkGuvLf1TMTona9wQ6JXF1jemcnY2EQRWQRLoPDiAwUIzLwKLHpleoj2Jm7cj4xCZITKKCSzSGZJGDzmTJWKNs/ivuq/rPayCp1MAF0Stp9lKjuxuT73PQHLGWAEl1foBHLu9BjEqGdKEeiKF4CbQ2zwVUHh9iIwI+cORvtJpooF9knt+YC3/hR8VVKI6hHdy8ijKBFgMLof4Qn5IfiqqBDMtd3oaWCuEPrWioCkN53P4UrFXfBVWaHJl5CieOtRzhIiA0In5kVAE/Lbbg6F1tZkSgyDupaCK+9Bm33+Mii0U0Wp9OZcwENkt98xKytJFVpjl2uuD4vx+NCJbLpLq9AYodDeqsrAFb5XvomTwk+r0ERP+aoUoUOWdh6gpPbSv/Ostyyl0MZ1lRWEGMDefwkRcAcltX1G4WSbYhXaMXSOCD94PUEy2rhiTWpl/UusQusuzpThA9eFiFWH4SVtmLSPVWj9UQIlIs42CzFE9Ce1cZzXplHq1F/ukBY6B7+wFU6bPuOviFXoWeJLx7ggfIkV3N+gFSgPIgugsQpNWVHOJRrn7h8Qa7TRyspxXjWgi9ilY5rwiQbVEXbSi6d8kHkVej9nTPQqK7RT7Zwl7dJWc3E3DJ5XoYe6tbGlYhqb78u5FiwILASfgDuG2fnJUgrt48+48cJma5iCSXFbKHeIwiFhVkqh/efkuiywOokp7Ylc6DRVC6UU2unhb3phBjt12LqIPvJ4e9bS+EG348dkCssotHcp52too7G9g1jQfYhX3NoQLpAFMUIJhXJxZFKsOzy6wGCN9pYeGqMoziuh0L74Ob0hEGScPFPaMxT+pyBFifEKx9LXJ8YZpXsGtEYbVKyhym6ylSJeIbhIelkAZGkMzJEzR2OJw29686MVAoeTdz+wtPOB8Xi7jjC5cEysQrhwkF4VxHp8x2J3mAjADdEYIhXCxZ9cudIT5kIkZfmxKWS+hbA1TmEPTsMSCyKYC33Sz+Rj5sSpRxGjsAe9bvbzsm0ejfPs/J478YDBk3f1K0S7wrPvQATOjQ2d+nAP5gGxuHJhLLBXIa7BTCqGxRq1L75B1wnkYgpkfQpxzC5VhqfEXk16NvB1FH0XisRlhc6rXcv5JrZr8gLQyQ3GpVOdQNMonF6MvnG7bDVtCFCxIFeY7bNNN9GbuFHPjUJSEVbXgbz2il67NpYMKK7V34MeNX8wTFHjEYogn1glXcI4FPw1ksAaj6cBVy39v+zGLUSPtthT5y9jgHXS8FGsCCawI+HqgjTZcVnvUV/gymXCYO5cVuot2aR6PUbUAoeatC5DESZYLswRYvxpGVmB9QiRTpjsf5G2dZFmX038Ng1a7I4ZqMzhbl98AOaaooeGThJGc9tguM/tQ5NGN7oVX/Rw09pAK2Sf/tMqGNshWg4wOubvzZ4gjBc5PUfMM/tBxXAVziTyTwQDuGeqz/leL+ipe/RwFgtIiuY94yOGgdvzV9Kn/uTbbRSwvXUlReMgErczuufH06PsDmfcL+r4pweeAuFG6AvrwcultFC88rtueM9q0hCgx8QfHoLnsoIbU3eYJsIdliARHHfwftXR+Ti6sYfky4cGnliB1vHRbg3Ix5IBxKIiCxSYdUdzefrs2QCY4KJtZ12qed30/T/+syMwA8Ezj1b+0OVwxSszXHmeCy65lc91aZrhk3QiyQHRAThvcvAnThqlO3yeP70+vMwnw2104w7eGWNvxm6jrGUIySE26PINvWPdN3ICyr8lkI8IlndPb7uf0nvg4tbmfgOhKmzmTCbnCTu5YE71lmnlr60F6XnOtcLUnPVNSPhX5Pa0YkZYlXDMU/y1LlIrRyeg8a/53zs6nxE9/OvIetKOHx47n8EzTbwVm0kdxQc1shjN7o6e/vZ3NmrlLEJRFEVRFEVRFEVRFEVRFEVRFEVRFEVRFEVR/rf8B3ivb8k3f8+kAAAAAElFTkSuQmCC;" vertex="1" parent="1">
          <mxGeometry x="670" y="220" width="115" height="115" as="geometry" />
        </mxCell>
        <mxCell id="7CHnxW_o8FtIitzruG6D-10" value="" style="endArrow=classic;startArrow=classic;html=1;rounded=0;" edge="1" parent="1" source="7CHnxW_o8FtIitzruG6D-5" target="7CHnxW_o8FtIitzruG6D-6">
          <mxGeometry width="50" height="50" relative="1" as="geometry">
            <mxPoint x="370" y="280" as="sourcePoint" />
            <mxPoint x="420" y="230" as="targetPoint" />
          </mxGeometry>
        </mxCell>
        <mxCell id="7CHnxW_o8FtIitzruG6D-11" value="&lt;font style=&quot;font-size: 14px;&quot;&gt;Open AI request &lt;br&gt;and response&lt;/font&gt;" style="edgeLabel;html=1;align=center;verticalAlign=middle;resizable=0;points=[];" vertex="1" connectable="0" parent="7CHnxW_o8FtIitzruG6D-10">
          <mxGeometry x="0.0052" y="-1" relative="1" as="geometry">
            <mxPoint y="1" as="offset" />
          </mxGeometry>
        </mxCell>
        <mxCell id="7CHnxW_o8FtIitzruG6D-12" value="&lt;font style=&quot;font-size: 14px;&quot;&gt;Preserve history and &lt;br&gt;send it along with prompt&lt;/font&gt;" style="sketch=0;outlineConnect=0;fontColor=#232F3E;gradientColor=none;fillColor=#232F3D;strokeColor=none;dashed=0;verticalLabelPosition=bottom;verticalAlign=top;align=center;html=1;fontSize=12;fontStyle=0;aspect=fixed;pointerEvents=1;shape=mxgraph.aws4.gear;" vertex="1" parent="1">
          <mxGeometry x="351.57" y="370" width="78" height="78" as="geometry" />
        </mxCell>
      </root>
    </mxGraphModel>
  </diagram>
</mxfile>
